# xmcd CD database file
#
# Track frame offsets:
#	150
#	20925
#	45257
#
# Disc length: 879 seconds
#
# Revision: 0
# Processed by: cddbd v1.5.1PL0 Copyright (c) Steve Scherf et al.
# Submitted via: CDex 1.51
#
DISCID=1d036d03
DTITLE=中谷美紀 - いばらの冠
DYEAR=1997
DGENRE=J-POP
TTITLE0=いばらの冠
TTITLE1=鳥籠の宇宙
TTITLE2=いばらの冠（instrumental)
EXTD=YEAR: 1997
EXTT0=
EXTT1=
EXTT2=
PLAYORDER=
